<svg width="263" height="69" viewBox="0 0 263 69" fill="none" xmlns="http://www.w3.org/2000/svg">
<g clip-path="url(#clip0_250_1092)">
<g clip-path="url(#clip1_250_1092)">
<path d="M24.7389 0.147377C24.007 -0.00242657 23.2733 0.38275 22.9809 1.06621L12.3311 25.956C9.04777 33.1842 12.0777 41.8389 13.3722 44.9157L0.59329 55.4659C0.26686 55.7354 0.0638911 56.125 0.0303205 56.5458C-0.00325004 56.9668 0.13567 57.3832 0.415278 57.7007L9.84551 68.4022C10.1446 68.7414 10.5748 68.9344 11.0251 68.9344C11.0516 68.9344 11.0781 68.9337 11.1046 68.9324C11.5837 68.9082 12.0252 68.6673 12.3035 68.2782L25.6818 49.5772C25.871 49.3126 25.9728 48.9956 25.9731 48.6707L25.974 46.4403C25.9784 36.9389 25.9943 3.44195 25.9943 1.67863C25.9945 0.936209 25.4697 0.29586 24.7389 0.147377Z" fill="black"/>
<path d="M53.9566 56.5457C53.9232 56.1247 53.72 55.7351 53.3936 55.4659L40.6145 44.9156C41.9092 41.8388 44.9391 33.1841 41.6556 25.9559L31.0058 1.06614C30.7136 0.382681 29.9786 -0.00227643 29.2478 0.147307C28.5169 0.29579 27.9922 0.936139 27.9922 1.679C27.9922 3.44232 28.0081 36.9393 28.0125 46.4407L28.0134 48.671C28.0136 48.9959 28.1152 49.3127 28.3047 49.5776L41.683 68.2785C41.9613 68.6675 42.4028 68.9086 42.8818 68.9328C42.9086 68.9341 42.9351 68.9347 42.9613 68.9347C43.4119 68.9347 43.8421 68.7418 44.1409 68.4026L53.5712 57.701C53.8512 57.3832 53.9902 56.9667 53.9566 56.5457Z" fill="black"/>
</g>
<path d="M79.96 56.02C78.76 56.02 77.62 55.72 76.54 55.12C75.46 54.52 74.56 53.6 73.84 52.36C73.16 51.12 72.82 49.56 72.82 47.68V30.04L69.34 30.16C69.06 30.16 68.84 30.06 68.68 29.86C68.56 29.62 68.5 29.36 68.5 29.08C68.5 28.28 68.78 27.82 69.34 27.7C70.82 27.42 71.94 26.96 72.7 26.32C73.46 25.64 74.04 24.84 74.44 23.92C74.88 23 75.28 22 75.64 20.92C75.76 20.6 75.94 20.4 76.18 20.32C76.42 20.2 76.68 20.14 76.96 20.14C77.2 20.14 77.46 20.2 77.74 20.32C78.06 20.44 78.22 20.66 78.22 20.98L77.8 27.82L84.82 27.4C85.18 27.36 85.42 27.46 85.54 27.7C85.66 27.94 85.72 28.22 85.72 28.54C85.72 28.94 85.64 29.34 85.48 29.74C85.36 30.14 85.2 30.34 85 30.34L78.28 30.16V48.4C78.28 49.56 78.52 50.62 79 51.58C79.52 52.54 80.44 53.02 81.76 53.02C82.2 53.02 82.7 52.98 83.26 52.9C83.82 52.82 84.42 52.64 85.06 52.36C85.22 52.28 85.38 52.22 85.54 52.18C85.7 52.1 85.86 52.06 86.02 52.06C86.34 52.06 86.58 52.2 86.74 52.48C86.9 52.72 87.04 52.98 87.16 53.26C87.28 53.62 87.18 53.9 86.86 54.1C85.62 54.9 84.48 55.42 83.44 55.66C82.4 55.9 81.24 56.02 79.96 56.02ZM92.0744 55.18C91.7544 55.18 91.5144 55.06 91.3544 54.82C91.1944 54.54 91.1144 54.26 91.1144 53.98C91.1544 53.38 91.2944 53.06 91.5344 53.02C91.8144 52.94 92.1344 52.9 92.4944 52.9C93.6144 52.9 94.3744 52.72 94.7744 52.36C95.2144 51.96 95.4544 51.44 95.4944 50.8C95.5744 50.16 95.6144 49.5 95.6144 48.82V19.54C95.6144 18.82 95.5744 18.16 95.4944 17.56C95.4544 16.92 95.2344 16.42 94.8344 16.06C94.4344 15.66 93.6744 15.46 92.5544 15.46C92.1944 15.46 91.8544 15.42 91.5344 15.34C91.2544 15.22 91.1144 14.86 91.1144 14.26C91.1144 13.66 91.4344 13.3 92.0744 13.18C93.9144 12.9 95.3144 12.62 96.2744 12.34C97.2744 12.06 98.0344 11.82 98.5544 11.62C99.0744 11.38 99.5344 11.26 99.9344 11.26C100.254 11.26 100.514 11.34 100.714 11.5C100.954 11.62 101.074 11.92 101.074 12.4V31.72H101.194C101.994 30.96 102.814 30.24 103.654 29.56C104.494 28.84 105.474 28.26 106.594 27.82C107.754 27.34 109.174 27.1 110.854 27.1C113.574 27.1 115.734 27.92 117.334 29.56C118.934 31.2 119.734 33.36 119.734 36.04V48.82C119.734 49.5 119.754 50.16 119.794 50.8C119.874 51.44 120.114 51.96 120.514 52.36C120.954 52.72 121.714 52.9 122.794 52.9C123.194 52.9 123.514 52.94 123.754 53.02C123.994 53.06 124.134 53.38 124.174 53.98C124.174 54.26 124.094 54.54 123.934 54.82C123.814 55.06 123.594 55.18 123.274 55.18C122.114 55.1 121.034 55.04 120.034 55C119.034 55 118.014 55 116.974 55C115.894 55 114.874 55 113.914 55C112.954 55.04 111.894 55.1 110.734 55.18C110.414 55.18 110.174 55.06 110.014 54.82C109.854 54.54 109.774 54.26 109.774 53.98C109.814 53.38 109.954 53.06 110.194 53.02C110.434 52.94 110.754 52.9 111.154 52.9C112.274 52.9 113.034 52.72 113.434 52.36C113.874 51.96 114.114 51.44 114.154 50.8C114.194 50.16 114.214 49.5 114.214 48.82V36.1C114.214 34.1 113.614 32.66 112.414 31.78C111.214 30.86 109.914 30.4 108.514 30.4C107.154 30.4 105.954 30.66 104.914 31.18C103.874 31.66 103.034 32.22 102.394 32.86C101.754 33.5 101.314 34.06 101.074 34.54V48.82C101.074 49.5 101.094 50.16 101.134 50.8C101.214 51.44 101.454 51.96 101.854 52.36C102.294 52.72 103.054 52.9 104.134 52.9C104.534 52.9 104.854 52.94 105.094 53.02C105.334 53.06 105.474 53.38 105.514 53.98C105.514 54.26 105.434 54.54 105.274 54.82C105.154 55.06 104.934 55.18 104.614 55.18C103.454 55.1 102.374 55.04 101.374 55C100.374 55 99.3544 55 98.3144 55C97.2344 55 96.2144 55 95.2544 55C94.2944 55.04 93.2344 55.1 92.0744 55.18ZM128.006 55.18C127.726 55.18 127.486 55.06 127.286 54.82C127.126 54.54 127.046 54.26 127.046 53.98C127.126 53.38 127.286 53.06 127.526 53.02C127.766 52.94 128.086 52.9 128.486 52.9C129.606 52.9 130.366 52.72 130.766 52.36C131.166 51.96 131.386 51.44 131.426 50.8C131.506 50.16 131.546 49.5 131.546 48.82V35.08C131.546 34.36 131.506 33.7 131.426 33.1C131.386 32.46 131.166 31.96 130.766 31.6C130.366 31.2 129.606 31 128.486 31C128.126 31 127.786 30.96 127.466 30.88C127.186 30.76 127.046 30.4 127.046 29.8C127.046 29.2 127.366 28.84 128.006 28.72C129.846 28.44 131.246 28.16 132.206 27.88C133.206 27.6 133.966 27.36 134.486 27.16C135.006 26.96 135.466 26.84 135.866 26.8C136.186 26.76 136.446 26.82 136.646 26.98C136.886 27.14 137.006 27.46 137.006 27.94V48.82C137.006 49.5 137.026 50.16 137.066 50.8C137.146 51.44 137.386 51.96 137.786 52.36C138.226 52.72 139.006 52.9 140.126 52.9C140.486 52.9 140.786 52.94 141.026 53.02C141.306 53.06 141.466 53.38 141.506 53.98C141.506 54.26 141.426 54.54 141.266 54.82C141.106 55.06 140.866 55.18 140.546 55.18C139.386 55.1 138.306 55.04 137.306 55C136.346 55 135.326 55 134.246 55C133.166 55 132.146 55 131.186 55C130.226 55.04 129.166 55.1 128.006 55.18ZM133.946 20.14C132.826 20.14 131.886 19.8 131.126 19.12C130.366 18.4 129.986 17.52 129.986 16.48C129.986 15.56 130.446 14.74 131.366 14.02C132.286 13.3 133.326 12.94 134.486 12.94C135.486 12.94 136.306 13.3 136.946 14.02C137.586 14.7 137.906 15.58 137.906 16.66C137.906 17.62 137.526 18.44 136.766 19.12C136.006 19.8 135.066 20.14 133.946 20.14ZM155.546 56.02C154.346 56.02 153.206 55.72 152.126 55.12C151.046 54.52 150.146 53.6 149.426 52.36C148.746 51.12 148.406 49.56 148.406 47.68V30.04L144.926 30.16C144.646 30.16 144.426 30.06 144.266 29.86C144.146 29.62 144.086 29.36 144.086 29.08C144.086 28.28 144.366 27.82 144.926 27.7C146.406 27.42 147.526 26.96 148.286 26.32C149.046 25.64 149.626 24.84 150.026 23.92C150.466 23 150.866 22 151.226 20.92C151.346 20.6 151.526 20.4 151.766 20.32C152.006 20.2 152.266 20.14 152.546 20.14C152.786 20.14 153.046 20.2 153.326 20.32C153.646 20.44 153.806 20.66 153.806 20.98L153.386 27.82L160.406 27.4C160.766 27.36 161.006 27.46 161.126 27.7C161.246 27.94 161.306 28.22 161.306 28.54C161.306 28.94 161.226 29.34 161.066 29.74C160.946 30.14 160.786 30.34 160.586 30.34L153.866 30.16V48.4C153.866 49.56 154.106 50.62 154.586 51.58C155.106 52.54 156.026 53.02 157.346 53.02C157.786 53.02 158.286 52.98 158.846 52.9C159.406 52.82 160.006 52.64 160.646 52.36C160.806 52.28 160.966 52.22 161.126 52.18C161.286 52.1 161.446 52.06 161.606 52.06C161.926 52.06 162.166 52.2 162.326 52.48C162.486 52.72 162.626 52.98 162.746 53.26C162.866 53.62 162.766 53.9 162.446 54.1C161.206 54.9 160.066 55.42 159.026 55.66C157.986 55.9 156.826 56.02 155.546 56.02ZM167.66 55.18C167.34 55.18 167.1 55.06 166.94 54.82C166.78 54.54 166.7 54.26 166.7 53.98C166.74 53.38 166.88 53.06 167.12 53.02C167.4 52.94 167.72 52.9 168.08 52.9C169.2 52.9 169.96 52.72 170.36 52.36C170.8 51.96 171.04 51.44 171.08 50.8C171.16 50.16 171.2 49.5 171.2 48.82V19.54C171.2 18.82 171.16 18.16 171.08 17.56C171.04 16.92 170.82 16.42 170.42 16.06C170.02 15.66 169.26 15.46 168.14 15.46C167.78 15.46 167.44 15.42 167.12 15.34C166.84 15.22 166.7 14.86 166.7 14.26C166.7 13.66 167.02 13.3 167.66 13.18C169.5 12.9 170.9 12.62 171.86 12.34C172.86 12.06 173.62 11.82 174.14 11.62C174.66 11.38 175.12 11.26 175.52 11.26C175.84 11.26 176.1 11.34 176.3 11.5C176.54 11.62 176.66 11.92 176.66 12.4V31.72H176.78C177.58 30.96 178.4 30.24 179.24 29.56C180.08 28.84 181.06 28.26 182.18 27.82C183.34 27.34 184.76 27.1 186.44 27.1C189.16 27.1 191.32 27.92 192.92 29.56C194.52 31.2 195.32 33.36 195.32 36.04V48.82C195.32 49.5 195.34 50.16 195.38 50.8C195.46 51.44 195.7 51.96 196.1 52.36C196.54 52.72 197.3 52.9 198.38 52.9C198.78 52.9 199.1 52.94 199.34 53.02C199.58 53.06 199.72 53.38 199.76 53.98C199.76 54.26 199.68 54.54 199.52 54.82C199.4 55.06 199.18 55.18 198.86 55.18C197.7 55.1 196.62 55.04 195.62 55C194.62 55 193.6 55 192.56 55C191.48 55 190.46 55 189.5 55C188.54 55.04 187.48 55.1 186.32 55.18C186 55.18 185.76 55.06 185.6 54.82C185.44 54.54 185.36 54.26 185.36 53.98C185.4 53.38 185.54 53.06 185.78 53.02C186.02 52.94 186.34 52.9 186.74 52.9C187.86 52.9 188.62 52.72 189.02 52.36C189.46 51.96 189.7 51.44 189.74 50.8C189.78 50.16 189.8 49.5 189.8 48.82V36.1C189.8 34.1 189.2 32.66 188 31.78C186.8 30.86 185.5 30.4 184.1 30.4C182.74 30.4 181.54 30.66 180.5 31.18C179.46 31.66 178.62 32.22 177.98 32.86C177.34 33.5 176.9 34.06 176.66 34.54V48.82C176.66 49.5 176.68 50.16 176.72 50.8C176.8 51.44 177.04 51.96 177.44 52.36C177.88 52.72 178.64 52.9 179.72 52.9C180.12 52.9 180.44 52.94 180.68 53.02C180.92 53.06 181.06 53.38 181.1 53.98C181.1 54.26 181.02 54.54 180.86 54.82C180.74 55.06 180.52 55.18 180.2 55.18C179.04 55.1 177.96 55.04 176.96 55C175.96 55 174.94 55 173.9 55C172.82 55 171.8 55 170.84 55C169.88 55.04 168.82 55.1 167.66 55.18ZM205.24 68.08C204.08 68.08 202.98 67.82 201.94 67.3C200.94 66.78 200.14 66.08 199.54 65.2C198.94 64.36 198.64 63.44 198.64 62.44C198.68 61.36 198.92 60.52 199.36 59.92C199.76 59.36 200.22 58.96 200.74 58.72C201.26 58.52 201.7 58.4 202.06 58.36C202.42 58.32 202.56 58.3 202.48 58.3C203.24 58.3 203.82 58.44 204.22 58.72C204.62 59.04 204.82 59.3 204.82 59.5C204.82 59.58 204.66 59.76 204.34 60.04C204.06 60.36 203.9 60.9 203.86 61.66C203.82 62.38 204.04 63.08 204.52 63.76C205 64.44 205.74 64.78 206.74 64.78C207.86 64.78 208.88 64.36 209.8 63.52C210.72 62.72 211.54 61.72 212.26 60.52C212.98 59.32 213.6 58.16 214.12 57.04C214.4 56.16 214.38 55.24 214.06 54.28C213.1 52.12 212.16 49.82 211.24 47.38C210.32 44.94 209.42 42.58 208.54 40.3C207.7 38.02 206.86 36.02 206.02 34.3C205.38 32.82 204.76 31.78 204.16 31.18C203.56 30.54 202.66 30.14 201.46 29.98C200.94 29.9 200.58 29.82 200.38 29.74C200.22 29.66 200.12 29.36 200.08 28.84C200.04 28.16 200.22 27.8 200.62 27.76C201.06 27.68 201.58 27.62 202.18 27.58C204.66 27.46 206.6 27.82 208 28.66C209.4 29.5 210.54 30.92 211.42 32.92C211.98 34.16 212.6 35.7 213.28 37.54C213.96 39.38 214.68 41.24 215.44 43.12C216.2 45 216.94 46.7 217.66 48.22H217.84L223.72 32.5C224.12 31.34 224.14 30.62 223.78 30.34C223.42 30.06 222.64 29.92 221.44 29.92C221.08 29.92 220.78 29.9 220.54 29.86C220.3 29.78 220.16 29.44 220.12 28.84C220.12 28.6 220.18 28.34 220.3 28.06C220.46 27.78 220.68 27.64 220.96 27.64C222.12 27.68 223.12 27.72 223.96 27.76C224.8 27.8 225.74 27.82 226.78 27.82C227.5 27.82 228.08 27.82 228.52 27.82C228.96 27.78 229.42 27.76 229.9 27.76C230.38 27.72 231 27.68 231.76 27.64C232.08 27.64 232.3 27.78 232.42 28.06C232.58 28.34 232.66 28.6 232.66 28.84C232.62 29.44 232.46 29.78 232.18 29.86C231.94 29.9 231.66 29.92 231.34 29.92C230.02 29.92 228.96 30.16 228.16 30.64C227.4 31.12 226.74 32.06 226.18 33.46C226.18 33.46 225.96 33.98 225.52 35.02C225.12 36.06 224.58 37.42 223.9 39.1C223.22 40.78 222.5 42.56 221.74 44.44C220.98 46.28 220.26 48.04 219.58 49.72C218.9 51.4 218.34 52.78 217.9 53.86C217.46 54.94 217.22 55.52 217.18 55.6C216.66 56.84 216.02 58.18 215.26 59.62C214.54 61.1 213.68 62.46 212.68 63.7C211.72 64.98 210.62 66.02 209.38 66.82C208.14 67.66 206.76 68.08 205.24 68.08ZM242.373 55.72C239.933 55.72 237.973 55.02 236.493 53.62C235.053 52.22 234.333 50.54 234.333 48.58C234.333 46.54 234.853 44.94 235.893 43.78C236.973 42.62 238.373 41.76 240.093 41.2C241.853 40.64 243.753 40.26 245.793 40.06C247.873 39.86 249.893 39.7 251.853 39.58V34.84C251.853 32.96 251.373 31.5 250.413 30.46C249.493 29.38 247.913 28.84 245.673 28.84C244.553 28.84 243.493 29.2 242.493 29.92C241.533 30.64 241.053 31.68 241.053 33.04C241.053 33.68 241.213 34.22 241.533 34.66C241.853 35.1 242.173 35.44 242.493 35.68C242.813 35.92 242.973 36.08 242.973 36.16C242.973 36.32 242.733 36.62 242.253 37.06C241.813 37.46 241.193 37.66 240.393 37.66C239.153 37.66 238.193 37.2 237.513 36.28C236.833 35.36 236.493 34.34 236.493 33.22C236.493 31.7 236.953 30.5 237.873 29.62C238.833 28.74 240.053 28.1 241.533 27.7C243.013 27.3 244.513 27.1 246.033 27.1C247.833 27.1 249.573 27.32 251.253 27.76C252.973 28.2 254.373 29.04 255.453 30.28C256.573 31.52 257.133 33.38 257.133 35.86V49.84C257.173 50.24 257.273 50.72 257.433 51.28C257.593 51.84 257.893 52.34 258.333 52.78C258.813 53.18 259.453 53.38 260.253 53.38C260.533 53.38 260.753 53.44 260.913 53.56C261.073 53.64 261.153 53.9 261.153 54.34C261.153 54.7 260.953 54.98 260.553 55.18C260.153 55.38 259.693 55.52 259.173 55.6C258.653 55.68 258.213 55.72 257.853 55.72C256.373 55.72 255.053 55.3 253.893 54.46C252.733 53.58 252.053 52.38 251.853 50.86C250.973 52.46 249.653 53.68 247.893 54.52C246.173 55.32 244.333 55.72 242.373 55.72ZM244.293 52.48C245.653 52.48 246.893 52.14 248.013 51.46C249.173 50.78 250.093 49.86 250.773 48.7C251.493 47.5 251.853 46.18 251.853 44.74V41.32C247.733 41.6 244.793 42.26 243.033 43.3C241.273 44.34 240.393 46.04 240.393 48.4C240.393 51.12 241.693 52.48 244.293 52.48Z" fill="black"/>
</g>
<defs>
<clipPath id="clip0_250_1092">
<rect width="263" height="69" fill="white"/>
</clipPath>
<clipPath id="clip1_250_1092">
<rect width="54" height="68.9538" fill="white"/>
</clipPath>
</defs>
</svg>
